  0
SECTION
  2
HEADER
  9
$ACADVER
  1
AC1014
  9
$HANDSEED
  5
FFFF
  9
$MEASUREMENT
 70
     1
  0
ENDSEC
  0
SECTION
  2
TABLES
  0
TABLE
  2
VPORT
  5
8
330
0
100
AcDbSymbolTable
 70
     4
  0
VPORT
  5
2E
330
8
100
AcDbSymbolTableRecord
100
AcDbViewportTableRecord
  2
*ACTIVE
 70
     0
 10
0.0
 20
0.0
 11
1.0
 21
1.0
 12
210.0
 22
148.5
 13
0.0
 23
0.0
 14
10.0
 24
10.0
 15
10.0
 25
10.0
 16
0.0
 26
0.0
 36
1.0
 17
0.0
 27
0.0
 37
0.0
 40
341.0
 41
1.24
 42
50.0
 43
0.0
 44
0.0
 50
0.0
 51
0.0
 71
     0
 72
   100
 73
     1
 74
     3
 75
     0
 76
     0
 77
     0
 78
     0
  0
ENDTAB
  0
TABLE
  2
LTYPE
  5
5
330
0
100
AcDbSymbolTable
 70
     1
  0
LTYPE
  5
14
330
5
100
AcDbSymbolTableRecord
100
AcDbLinetypeTableRecord
  2
BYBLOCK
 70
     0
  3

 72
    65
 73
     0
 40
0.0
  0
LTYPE
  5
15
330
5
100
AcDbSymbolTableRecord
100
AcDbLinetypeTableRecord
  2
BYLAYER
 70
     0
  3

 72
    65
 73
     0
 40
0.0
  0
LTYPE
  5
16
330
5
100
AcDbSymbolTableRecord
100
AcDbLinetypeTableRecord
  2
CONTINUOUS
 70
     0
  3
Solid line
 72
    65
 73
     0
 40
0.0
  0
ENDTAB
  0
TABLE
  2
LAYER
  5
2
100
AcDbSymbolTable
 70
2
  0
LAYER
  5
50
100
AcDbSymbolTableRecord
100
AcDbLayerTableRecord
  2
0
 70
0
  6
CONTINUOUS
  0
LAYER
  5
51
100
AcDbSymbolTableRecord
100
AcDbLayerTableRecord
  2
Layer_1
 70
0
  6
CONTINUOUS
  0
ENDTAB
  0
TABLE
  2
STYLE
  5
3
330
0
100
AcDbSymbolTable
 70
     1
  0
STYLE
  5
11
330
3
100
AcDbSymbolTableRecord
100
AcDbTextStyleTableRecord
  2
STANDARD
 70
     0
 40
0.0
 41
1.0
 50
0.0
 71
     0
 42
2.5
  3
txt
  4

  0
ENDTAB
  0
TABLE
  2
VIEW
  5
6
330
0
100
AcDbSymbolTable
 70
     0
  0
ENDTAB
  0
TABLE
  2
UCS
  5
7
330
0
100
AcDbSymbolTable
 70
     0
  0
ENDTAB
  0
TABLE
  2
APPID
  5
9
330
0
100
AcDbSymbolTable
 70
     2
  0
APPID
  5
12
330
9
100
AcDbSymbolTableRecord
100
AcDbRegAppTableRecord
  2
ACAD
 70
     0
  0
ENDTAB
  0
TABLE
  2
DIMSTYLE
  5
A
330
0
100
AcDbSymbolTable
 70
     1
  0
DIMSTYLE
105
27
330
A
100
AcDbSymbolTableRecord
100
AcDbDimStyleTableRecord
  2
ISO-25
 70
     0
  3

  4

  5

  6

  7

 40
1.0
 41
2.5
 42
0.625
 43
3.75
 44
1.25
 45
0.0
 46
0.0
 47
0.0
 48
0.0
140
2.5
141
2.5
142
0.0
143
0.03937007874016
144
1.0
145
0.0
146
1.0
147
0.625
 71
     0
 72
     0
 73
     0
 74
     0
 75
     0
 76
     0
 77
     1
 78
     8
170
     0
171
     3
172
     1
173
     0
174
     0
175
     0
176
     0
177
     0
178
     0
270
     2
271
     2
272
     2
273
     2
274
     3
340
11
275
     0
280
     0
281
     0
282
     0
283
     0
284
     8
285
     0
286
     0
287
     3
288
     0
  0
ENDTAB
  0
TABLE
  2
BLOCK_RECORD
  5
1
330
0
100
AcDbSymbolTable
 70
     1
  0
BLOCK_RECORD
  5
1F
330
1
100
AcDbSymbolTableRecord
100
AcDbBlockTableRecord
  2
*MODEL_SPACE
  0
BLOCK_RECORD
  5
1B
330
1
100
AcDbSymbolTableRecord
100
AcDbBlockTableRecord
  2
*PAPER_SPACE
  0
ENDTAB
  0
ENDSEC
  0
SECTION
  2
BLOCKS
  0
BLOCK
  5
20
330
1F
100
AcDbEntity
  8
0
100
AcDbBlockBegin
  2
*MODEL_SPACE
 70
     0
 10
0.0
 20
0.0
 30
0.0
  3
*MODEL_SPACE
  1

  0
ENDBLK
  5
21
330
1F
100
AcDbEntity
  8
0
100
AcDbBlockEnd
  0
BLOCK
  5
1C
330
1B
100
AcDbEntity
 67
     1
  8
0
100
AcDbBlockBegin
  2
*PAPER_SPACE
  1

  0
ENDBLK
  5
1D
330
1B
100
AcDbEntity
 67
     1
  8
0
100
AcDbBlockEnd
  0
ENDSEC
  0
SECTION
  2
ENTITIES
  0
LWPOLYLINE
  5
100
100
AcDbEntity
  8
Layer_1
 62
1
100
AcDbPolyline
 90
12
 70
1
 10
151.342390
 20
299.339351
 30
0.0
 10
151.342390
 20
286.533271
 30
0.0
 10
160.960410
 20
286.533271
 30
0.0
 10
160.960410
 20
283.387541
 30
0.0
 10
151.342390
 20
283.387541
 30
0.0
 10
151.342390
 20
34.627350
 30
0.0
 10
160.960410
 20
34.627350
 30
0.0
 10
160.960410
 20
31.481620
 30
0.0
 10
151.342390
 20
31.481620
 30
0.0
 10
151.342390
 20
18.658340
 30
0.0
 10
170.116960
 20
18.658340
 30
0.0
 10
170.116960
 20
299.339351
 30
0.0
  0
LWPOLYLINE
  5
101
100
AcDbEntity
  8
Layer_1
 62
1
100
AcDbPolyline
 90
4
 70
1
 10
32.406071
 20
289.324884
 30
0.0
 10
58.789297
 20
262.941658
 30
0.0
 10
56.624478
 20
260.776839
 30
0.0
 10
30.241252
 20
287.160065
 30
0.0
  0
LWPOLYLINE
  5
102
100
AcDbEntity
  8
Layer_1
 62
1
100
AcDbPolyline
 90
4
 70
1
 10
32.406042
 20
221.033534
 30
0.0
 10
58.789265
 20
194.650360
 30
0.0
 10
56.624447
 20
192.485540
 30
0.0
 10
30.241224
 20
218.868715
 30
0.0
  0
LWPOLYLINE
  5
103
100
AcDbEntity
  8
Layer_1
 62
1
100
AcDbPolyline
 90
4
 70
1
 10
32.406036
 20
152.742260
 30
0.0
 10
58.789258
 20
126.359040
 30
0.0
 10
56.624438
 20
124.194220
 30
0.0
 10
30.241217
 20
150.577440
 30
0.0
  0
LWPOLYLINE
  5
104
100
AcDbEntity
  8
Layer_1
 62
1
100
AcDbPolyline
 90
4
 70
1
 10
32.406052
 20
83.921770
 30
0.0
 10
58.789274
 20
57.538550
 30
0.0
 10
56.624452
 20
55.373730
 30
0.0
 10
30.241231
 20
81.756950
 30
0.0
  0
LWPOLYLINE
  5
105
100
AcDbEntity
  8
Layer_1
 62
1
100
AcDbPolyline
 90
17
 70
1
 10
3.269051
 20
299.339351
 30
0.0
 10
3.269051
 20
294.339140
 30
0.0
 10
12.887068
 20
294.339140
 30
0.0
 10
12.887068
 20
291.220984
 30
0.0
 10
3.269051
 20
291.220984
 30
0.0
 10
3.269051
 20
10.302746
 30
0.0
 10
8.191231
 20
10.302746
 30
0.0
 10
8.191231
 20
19.920747
 30
0.0
 10
11.308870
 20
19.920747
 30
0.0
 10
11.308870
 20
10.302746
 30
0.0
 10
64.188329
 20
10.302746
 30
0.0
 10
64.188329
 20
19.920747
 30
0.0
 10
67.305970
 20
19.920747
 30
0.0
 10
67.305970
 20
10.302746
 30
0.0
 10
72.305663
 20
10.302746
 30
0.0
 10
72.305663
 20
299.339351
 30
0.0
 10
3.269051
 20
299.339351
 30
0.0
  0
LWPOLYLINE
  5
106
100
AcDbEntity
  8
Layer_1
 62
1
100
AcDbPolyline
 90
4
 70
1
 10
106.442870
 20
289.324884
 30
0.0
 10
132.826100
 20
262.941658
 30
0.0
 10
130.661280
 20
260.776839
 30
0.0
 10
104.278050
 20
287.160065
 30
0.0
  0
LWPOLYLINE
  5
107
100
AcDbEntity
  8
Layer_1
 62
1
100
AcDbPolyline
 90
4
 70
1
 10
106.442840
 20
221.033534
 30
0.0
 10
132.826070
 20
194.650360
 30
0.0
 10
130.661250
 20
192.485540
 30
0.0
 10
104.278020
 20
218.868715
 30
0.0
  0
LWPOLYLINE
  5
108
100
AcDbEntity
  8
Layer_1
 62
1
100
AcDbPolyline
 90
4
 70
1
 10
106.442840
 20
152.742260
 30
0.0
 10
132.826060
 20
126.359040
 30
0.0
 10
130.661240
 20
124.194220
 30
0.0
 10
104.278010
 20
150.577440
 30
0.0
  0
LWPOLYLINE
  5
109
100
AcDbEntity
  8
Layer_1
 62
1
100
AcDbPolyline
 90
4
 70
1
 10
106.442850
 20
83.921770
 30
0.0
 10
132.826080
 20
57.538550
 30
0.0
 10
130.661250
 20
55.373730
 30
0.0
 10
104.278030
 20
81.756950
 30
0.0
  0
LWPOLYLINE
  5
10a
100
AcDbEntity
  8
Layer_1
 62
1
100
AcDbPolyline
 90
16
 70
1
 10
77.305833
 20
299.339351
 30
0.0
 10
77.305833
 20
294.339140
 30
0.0
 10
86.923850
 20
294.339140
 30
0.0
 10
86.923850
 20
291.220984
 30
0.0
 10
77.305833
 20
291.220984
 30
0.0
 10
77.305833
 20
10.302750
 30
0.0
 10
82.228013
 20
10.302750
 30
0.0
 10
82.228013
 20
19.920750
 30
0.0
 10
85.345652
 20
19.920750
 30
0.0
 10
85.345652
 20
10.302750
 30
0.0
 10
138.225130
 20
10.302750
 30
0.0
 10
138.225130
 20
19.920750
 30
0.0
 10
141.342770
 20
19.920750
 30
0.0
 10
141.342770
 20
10.302750
 30
0.0
 10
146.342470
 20
10.302750
 30
0.0
 10
146.342470
 20
299.339351
 30
0.0
  0
ENDSEC
  0
SECTION
  2
OBJECTS
  0
DICTIONARY
  5
C
330
0
100
AcDbDictionary
  3
ACAD_GROUP
350
D
  3
ACAD_MLINESTYLE
350
17
  0
DICTIONARY
  5
D
330
C
100
AcDbDictionary
  0
DICTIONARY
  5
1A
330
C
100
AcDbDictionary
  0
DICTIONARY
  5
17
330
C
100
AcDbDictionary
  3
STANDARD
350
18
  0
DICTIONARY
  5
19
330
C
100
AcDbDictionary
  0
ENDSEC
  0
EOF
