  0
SECTION
  2
HEADER
  9
$ACADVER
  1
AC1014
  9
$HANDSEED
  5
FFFF
  9
$MEASUREMENT
 70
     1
  0
ENDSEC
  0
SECTION
  2
TABLES
  0
TABLE
  2
VPORT
  5
8
330
0
100
AcDbSymbolTable
 70
     4
  0
VPORT
  5
2E
330
8
100
AcDbSymbolTableRecord
100
AcDbViewportTableRecord
  2
*ACTIVE
 70
     0
 10
0.0
 20
0.0
 11
1.0
 21
1.0
 12
210.0
 22
148.5
 13
0.0
 23
0.0
 14
10.0
 24
10.0
 15
10.0
 25
10.0
 16
0.0
 26
0.0
 36
1.0
 17
0.0
 27
0.0
 37
0.0
 40
341.0
 41
1.24
 42
50.0
 43
0.0
 44
0.0
 50
0.0
 51
0.0
 71
     0
 72
   100
 73
     1
 74
     3
 75
     0
 76
     0
 77
     0
 78
     0
  0
ENDTAB
  0
TABLE
  2
LTYPE
  5
5
330
0
100
AcDbSymbolTable
 70
     1
  0
LTYPE
  5
14
330
5
100
AcDbSymbolTableRecord
100
AcDbLinetypeTableRecord
  2
BYBLOCK
 70
     0
  3

 72
    65
 73
     0
 40
0.0
  0
LTYPE
  5
15
330
5
100
AcDbSymbolTableRecord
100
AcDbLinetypeTableRecord
  2
BYLAYER
 70
     0
  3

 72
    65
 73
     0
 40
0.0
  0
LTYPE
  5
16
330
5
100
AcDbSymbolTableRecord
100
AcDbLinetypeTableRecord
  2
CONTINUOUS
 70
     0
  3
Solid line
 72
    65
 73
     0
 40
0.0
  0
ENDTAB
  0
TABLE
  2
LAYER
  5
2
100
AcDbSymbolTable
 70
2
  0
LAYER
  5
50
100
AcDbSymbolTableRecord
100
AcDbLayerTableRecord
  2
0
 70
0
  6
CONTINUOUS
  0
LAYER
  5
51
100
AcDbSymbolTableRecord
100
AcDbLayerTableRecord
  2
Layer_1
 70
0
  6
CONTINUOUS
  0
ENDTAB
  0
TABLE
  2
STYLE
  5
3
330
0
100
AcDbSymbolTable
 70
     1
  0
STYLE
  5
11
330
3
100
AcDbSymbolTableRecord
100
AcDbTextStyleTableRecord
  2
STANDARD
 70
     0
 40
0.0
 41
1.0
 50
0.0
 71
     0
 42
2.5
  3
txt
  4

  0
ENDTAB
  0
TABLE
  2
VIEW
  5
6
330
0
100
AcDbSymbolTable
 70
     0
  0
ENDTAB
  0
TABLE
  2
UCS
  5
7
330
0
100
AcDbSymbolTable
 70
     0
  0
ENDTAB
  0
TABLE
  2
APPID
  5
9
330
0
100
AcDbSymbolTable
 70
     2
  0
APPID
  5
12
330
9
100
AcDbSymbolTableRecord
100
AcDbRegAppTableRecord
  2
ACAD
 70
     0
  0
ENDTAB
  0
TABLE
  2
DIMSTYLE
  5
A
330
0
100
AcDbSymbolTable
 70
     1
  0
DIMSTYLE
105
27
330
A
100
AcDbSymbolTableRecord
100
AcDbDimStyleTableRecord
  2
ISO-25
 70
     0
  3

  4

  5

  6

  7

 40
1.0
 41
2.5
 42
0.625
 43
3.75
 44
1.25
 45
0.0
 46
0.0
 47
0.0
 48
0.0
140
2.5
141
2.5
142
0.0
143
0.03937007874016
144
1.0
145
0.0
146
1.0
147
0.625
 71
     0
 72
     0
 73
     0
 74
     0
 75
     0
 76
     0
 77
     1
 78
     8
170
     0
171
     3
172
     1
173
     0
174
     0
175
     0
176
     0
177
     0
178
     0
270
     2
271
     2
272
     2
273
     2
274
     3
340
11
275
     0
280
     0
281
     0
282
     0
283
     0
284
     8
285
     0
286
     0
287
     3
288
     0
  0
ENDTAB
  0
TABLE
  2
BLOCK_RECORD
  5
1
330
0
100
AcDbSymbolTable
 70
     1
  0
BLOCK_RECORD
  5
1F
330
1
100
AcDbSymbolTableRecord
100
AcDbBlockTableRecord
  2
*MODEL_SPACE
  0
BLOCK_RECORD
  5
1B
330
1
100
AcDbSymbolTableRecord
100
AcDbBlockTableRecord
  2
*PAPER_SPACE
  0
ENDTAB
  0
ENDSEC
  0
SECTION
  2
BLOCKS
  0
BLOCK
  5
20
330
1F
100
AcDbEntity
  8
0
100
AcDbBlockBegin
  2
*MODEL_SPACE
 70
     0
 10
0.0
 20
0.0
 30
0.0
  3
*MODEL_SPACE
  1

  0
ENDBLK
  5
21
330
1F
100
AcDbEntity
  8
0
100
AcDbBlockEnd
  0
BLOCK
  5
1C
330
1B
100
AcDbEntity
 67
     1
  8
0
100
AcDbBlockBegin
  2
*PAPER_SPACE
  1

  0
ENDBLK
  5
1D
330
1B
100
AcDbEntity
 67
     1
  8
0
100
AcDbBlockEnd
  0
ENDSEC
  0
SECTION
  2
ENTITIES
  0
SPLINE
  5
100
100
AcDbEntity
  8
Layer_1
 62
1
100
AcDbSpline
 70
0
 71
3
 72
22
 73
18
 74
16
 40
0.000000
 40
0.000000
 40
0.000000
 40
0.000000
 40
8.654306
 40
17.154502
 40
25.808808
 40
34.463115
 40
42.963312
 40
51.617618
 40
60.271924
 40
68.772120
 40
77.426426
 40
86.080732
 40
94.580929
 40
103.235235
 40
114.763343
 40
125.949530
 40
137.477637
 40
137.477637
 40
137.477637
 40
137.477637
 10
31.800381
 20
162.251230
 30
0.0
 10
28.896986
 20
161.916204
 30
0.0
 10
23.141897
 20
161.252119
 30
0.0
 10
15.807898
 20
156.157827
 30
0.0
 10
10.893740
 20
148.874011
 30
0.0
 10
9.180982
 20
140.197473
 30
0.0
 10
10.901780
 20
131.550160
 30
0.0
 10
15.799133
 20
124.201554
 30
0.0
 10
23.146717
 20
119.304471
 30
0.0
 10
31.797802
 20
117.583615
 30
0.0
 10
40.460066
 20
119.296338
 30
0.0
 10
47.797037
 20
124.210698
 30
0.0
 10
52.695221
 20
131.543935
 30
0.0
 10
54.630137
 20
141.169748
 30
0.0
 10
51.778651
 20
151.677634
 30
0.0
 10
43.344719
 20
160.450165
 30
0.0
 10
35.686918
 20
161.644880
 30
0.0
 10
31.800381
 20
162.251230
 30
0.0
 11
31.800381
 21
162.251230
 31
0.0
 11
23.314256
 21
160.553379
 31
0.0
 11
16.246602
 21
155.830923
 31
0.0
 11
11.430493
 21
148.640505
 31
0.0
 11
9.751603
 21
140.150608
 31
0.0
 11
11.409909
 21
131.813740
 31
0.0
 11
16.209944
 21
124.612581
 31
0.0
 11
23.411102
 21
119.812546
 31
0.0
 11
31.747969
 21
118.154240
 31
0.0
 11
40.237865
 21
119.833130
 31
0.0
 11
47.428283
 21
124.649239
 31
0.0
 11
52.150738
 21
131.716895
 31
0.0
 11
53.848589
 21
140.203020
 31
0.0
 11
50.838362
 21
151.331174
 31
0.0
 11
42.928534
 21
159.241003
 31
0.0
 11
31.800381
 21
162.251230
 31
0.0
  0
LWPOLYLINE
  5
101
100
AcDbEntity
  8
Layer_1
 62
1
100
AcDbPolyline
 90
1
 70
1
 10
31.800381
 20
162.251230
 30
0.0
  0
SPLINE
  5
102
100
AcDbEntity
  8
Layer_1
 62
1
100
AcDbSpline
 70
0
 71
3
 72
22
 73
18
 74
16
 40
0.000000
 40
0.000000
 40
0.000000
 40
0.000000
 40
8.654306
 40
17.154502
 40
25.808808
 40
34.463115
 40
42.963312
 40
51.617618
 40
60.271924
 40
68.772120
 40
77.426426
 40
86.080732
 40
94.580929
 40
103.235235
 40
114.763343
 40
125.949530
 40
137.477637
 40
137.477637
 40
137.477637
 40
137.477637
 10
31.800381
 20
291.028309
 30
0.0
 10
28.896986
 20
290.693283
 30
0.0
 10
23.141897
 20
290.029198
 30
0.0
 10
15.807898
 20
284.934906
 30
0.0
 10
10.893740
 20
277.651090
 30
0.0
 10
9.180982
 20
268.974552
 30
0.0
 10
10.901780
 20
260.327239
 30
0.0
 10
15.799133
 20
252.978633
 30
0.0
 10
23.146717
 20
248.081550
 30
0.0
 10
31.797802
 20
246.360694
 30
0.0
 10
40.460066
 20
248.073417
 30
0.0
 10
47.797037
 20
252.987777
 30
0.0
 10
52.695221
 20
260.321014
 30
0.0
 10
54.630137
 20
269.946827
 30
0.0
 10
51.778651
 20
280.454713
 30
0.0
 10
43.344719
 20
289.227244
 30
0.0
 10
35.686918
 20
290.421959
 30
0.0
 10
31.800381
 20
291.028309
 30
0.0
 11
31.800381
 21
291.028309
 31
0.0
 11
23.314256
 21
289.330458
 31
0.0
 11
16.246602
 21
284.608002
 31
0.0
 11
11.430493
 21
277.417584
 31
0.0
 11
9.751603
 21
268.927687
 31
0.0
 11
11.409909
 21
260.590819
 31
0.0
 11
16.209944
 21
253.389660
 31
0.0
 11
23.411102
 21
248.589625
 31
0.0
 11
31.747969
 21
246.931319
 31
0.0
 11
40.237865
 21
248.610209
 31
0.0
 11
47.428283
 21
253.426318
 31
0.0
 11
52.150738
 21
260.493974
 31
0.0
 11
53.848589
 21
268.980099
 31
0.0
 11
50.838362
 21
280.108253
 31
0.0
 11
42.928534
 21
288.018082
 31
0.0
 11
31.800381
 21
291.028309
 31
0.0
  0
LWPOLYLINE
  5
103
100
AcDbEntity
  8
Layer_1
 62
1
100
AcDbPolyline
 90
1
 70
1
 10
31.800381
 20
291.028309
 30
0.0
  0
SPLINE
  5
104
100
AcDbEntity
  8
Layer_1
 62
1
100
AcDbSpline
 70
0
 71
3
 72
22
 73
18
 74
16
 40
0.000000
 40
0.000000
 40
0.000000
 40
0.000000
 40
8.654306
 40
17.154502
 40
25.808808
 40
34.463115
 40
42.963312
 40
51.617618
 40
60.271924
 40
68.772120
 40
77.426426
 40
86.080732
 40
94.580929
 40
103.235235
 40
114.763343
 40
125.949530
 40
137.477637
 40
137.477637
 40
137.477637
 40
137.477637
 10
31.800381
 20
226.639770
 30
0.0
 10
28.896986
 20
226.304744
 30
0.0
 10
23.141897
 20
225.640659
 30
0.0
 10
15.807898
 20
220.546367
 30
0.0
 10
10.893740
 20
213.262551
 30
0.0
 10
9.180982
 20
204.586013
 30
0.0
 10
10.901780
 20
195.938700
 30
0.0
 10
15.799133
 20
188.590094
 30
0.0
 10
23.146717
 20
183.693011
 30
0.0
 10
31.797802
 20
181.972155
 30
0.0
 10
40.460066
 20
183.684878
 30
0.0
 10
47.797037
 20
188.599238
 30
0.0
 10
52.695221
 20
195.932475
 30
0.0
 10
54.630137
 20
205.558288
 30
0.0
 10
51.778651
 20
216.066174
 30
0.0
 10
43.344719
 20
224.838705
 30
0.0
 10
35.686918
 20
226.033420
 30
0.0
 10
31.800381
 20
226.639770
 30
0.0
 11
31.800381
 21
226.639770
 31
0.0
 11
23.314256
 21
224.941919
 31
0.0
 11
16.246602
 21
220.219463
 31
0.0
 11
11.430493
 21
213.029045
 31
0.0
 11
9.751603
 21
204.539148
 31
0.0
 11
11.409909
 21
196.202280
 31
0.0
 11
16.209944
 21
189.001121
 31
0.0
 11
23.411102
 21
184.201086
 31
0.0
 11
31.747969
 21
182.542780
 31
0.0
 11
40.237865
 21
184.221670
 31
0.0
 11
47.428283
 21
189.037779
 31
0.0
 11
52.150738
 21
196.105435
 31
0.0
 11
53.848589
 21
204.591560
 31
0.0
 11
50.838362
 21
215.719714
 31
0.0
 11
42.928534
 21
223.629543
 31
0.0
 11
31.800381
 21
226.639770
 31
0.0
  0
LWPOLYLINE
  5
105
100
AcDbEntity
  8
Layer_1
 62
1
100
AcDbPolyline
 90
1
 70
1
 10
31.800381
 20
226.639770
 30
0.0
  0
LWPOLYLINE
  5
106
100
AcDbEntity
  8
Layer_1
 62
1
100
AcDbPolyline
 90
1
 70
1
 10
31.800381
 20
97.862710
 30
0.0
  0
SPLINE
  5
107
100
AcDbEntity
  8
Layer_1
 62
1
100
AcDbSpline
 70
0
 71
3
 72
22
 73
18
 74
16
 40
0.000000
 40
0.000000
 40
0.000000
 40
0.000000
 40
8.654306
 40
17.154502
 40
25.808808
 40
34.463115
 40
42.963312
 40
51.617618
 40
60.271924
 40
68.772120
 40
77.426426
 40
86.080732
 40
94.580929
 40
103.235235
 40
114.763343
 40
125.949530
 40
137.477637
 40
137.477637
 40
137.477637
 40
137.477637
 10
31.800381
 20
97.862710
 30
0.0
 10
28.896986
 20
97.527684
 30
0.0
 10
23.141897
 20
96.863599
 30
0.0
 10
15.807898
 20
91.769307
 30
0.0
 10
10.893740
 20
84.485491
 30
0.0
 10
9.180982
 20
75.808953
 30
0.0
 10
10.901780
 20
67.161640
 30
0.0
 10
15.799133
 20
59.813034
 30
0.0
 10
23.146717
 20
54.915951
 30
0.0
 10
31.797802
 20
53.195095
 30
0.0
 10
40.460066
 20
54.907818
 30
0.0
 10
47.797037
 20
59.822178
 30
0.0
 10
52.695221
 20
67.155415
 30
0.0
 10
54.630137
 20
76.781228
 30
0.0
 10
51.778651
 20
87.289114
 30
0.0
 10
43.344719
 20
96.061645
 30
0.0
 10
35.686918
 20
97.256360
 30
0.0
 10
31.800381
 20
97.862710
 30
0.0
 11
31.800381
 21
97.862710
 31
0.0
 11
23.314256
 21
96.164859
 31
0.0
 11
16.246602
 21
91.442403
 31
0.0
 11
11.430493
 21
84.251985
 31
0.0
 11
9.751603
 21
75.762088
 31
0.0
 11
11.409909
 21
67.425220
 31
0.0
 11
16.209944
 21
60.224061
 31
0.0
 11
23.411102
 21
55.424026
 31
0.0
 11
31.747969
 21
53.765720
 31
0.0
 11
40.237865
 21
55.444610
 31
0.0
 11
47.428283
 21
60.260719
 31
0.0
 11
52.150738
 21
67.328375
 31
0.0
 11
53.848589
 21
75.814500
 31
0.0
 11
50.838362
 21
86.942654
 31
0.0
 11
42.928534
 21
94.852483
 31
0.0
 11
31.800381
 21
97.862710
 31
0.0
  0
LWPOLYLINE
  5
108
100
AcDbEntity
  8
Layer_1
 62
1
100
AcDbPolyline
 90
12
 70
1
 10
13.768240
 20
301.357671
 30
0.0
 10
13.768240
 20
298.415294
 30
0.0
 10
2.349052
 20
298.415294
 30
0.0
 10
2.349052
 20
49.512650
 30
0.0
 10
13.768240
 20
49.512650
 30
0.0
 10
13.768240
 20
46.570800
 30
0.0
 10
49.833620
 20
46.570800
 30
0.0
 10
49.833620
 20
49.512650
 30
0.0
 10
61.252810
 20
49.512650
 30
0.0
 10
61.252810
 20
298.415294
 30
0.0
 10
49.833620
 20
298.415294
 30
0.0
 10
49.833620
 20
301.357671
 30
0.0
  0
SPLINE
  5
109
100
AcDbEntity
  8
Layer_1
 62
1
100
AcDbSpline
 70
0
 71
3
 72
25
 73
21
 74
19
 40
0.000000
 40
0.000000
 40
0.000000
 40
0.000000
 40
8.654306
 40
17.154502
 40
25.808808
 40
34.463115
 40
42.963312
 40
51.617618
 40
60.271924
 40
68.772120
 40
77.426426
 40
86.080732
 40
94.580929
 40
103.235235
 40
109.006903
 40
114.730808
 40
120.502475
 40
126.274142
 40
131.998047
 40
137.769714
 40
137.769714
 40
137.769714
 40
137.769714
 10
95.704277
 20
162.251230
 30
0.0
 10
92.800882
 20
161.916204
 30
0.0
 10
87.045793
 20
161.252119
 30
0.0
 10
79.711794
 20
156.157827
 30
0.0
 10
74.797636
 20
148.874011
 30
0.0
 10
73.084878
 20
140.197474
 30
0.0
 10
74.805677
 20
131.550159
 30
0.0
 10
79.703026
 20
124.201558
 30
0.0
 10
87.050626
 20
119.304460
 30
0.0
 10
95.701647
 20
117.583657
 30
0.0
 10
104.364155
 20
119.296178
 30
0.0
 10
111.700219
 20
124.211290
 30
0.0
 10
116.601748
 20
131.541752
 30
0.0
 10
118.137096
 20
139.245047
 30
0.0
 10
117.244575
 20
145.974331
 30
0.0
 10
115.017729
 20
151.352182
 30
0.0
 10
111.474783
 20
155.978378
 30
0.0
 10
106.854406
 20
159.498121
 30
0.0
 10
101.476512
 20
161.811504
 30
0.0
 10
97.633677
 20
162.104249
 30
0.0
 10
95.704277
 20
162.251230
 30
0.0
 11
95.704277
 21
162.251230
 31
0.0
 11
87.218152
 21
160.553379
 31
0.0
 11
80.150498
 21
155.830923
 31
0.0
 11
75.334389
 21
148.640505
 31
0.0
 11
73.655499
 21
140.150608
 31
0.0
 11
75.313805
 21
131.813740
 31
0.0
 11
80.113840
 21
124.612581
 31
0.0
 11
87.314998
 21
119.812546
 31
0.0
 11
95.651865
 21
118.154240
 31
0.0
 11
104.141761
 21
119.833130
 31
0.0
 11
111.332179
 21
124.649239
 31
0.0
 11
116.054634
 21
131.716895
 31
0.0
 11
117.752485
 21
140.203020
 31
0.0
 11
116.997102
 21
145.925043
 31
0.0
 11
114.806658
 21
151.213241
 31
0.0
 11
111.294714
 21
155.793459
 31
0.0
 11
106.714497
 21
159.305403
 31
0.0
 11
101.426299
 21
161.495847
 31
0.0
 11
95.704277
 21
162.251230
 31
0.0
  0
LWPOLYLINE
  5
10a
100
AcDbEntity
  8
Layer_1
 62
1
100
AcDbPolyline
 90
1
 70
1
 10
95.704277
 20
162.251230
 30
0.0
  0
SPLINE
  5
10b
100
AcDbEntity
  8
Layer_1
 62
1
100
AcDbSpline
 70
0
 71
3
 72
25
 73
21
 74
19
 40
0.000000
 40
0.000000
 40
0.000000
 40
0.000000
 40
8.654306
 40
17.154502
 40
25.808808
 40
34.463115
 40
42.963312
 40
51.617618
 40
60.271924
 40
68.772120
 40
77.426426
 40
86.080732
 40
94.580929
 40
103.235235
 40
109.006903
 40
114.730808
 40
120.502475
 40
126.274142
 40
131.998047
 40
137.769714
 40
137.769714
 40
137.769714
 40
137.769714
 10
95.704277
 20
291.028306
 30
0.0
 10
92.800882
 20
290.693280
 30
0.0
 10
87.045793
 20
290.029195
 30
0.0
 10
79.711794
 20
284.934903
 30
0.0
 10
74.797636
 20
277.651087
 30
0.0
 10
73.084878
 20
268.974550
 30
0.0
 10
74.805677
 20
260.327235
 30
0.0
 10
79.703026
 20
252.978634
 30
0.0
 10
87.050626
 20
248.081536
 30
0.0
 10
95.701647
 20
246.360733
 30
0.0
 10
104.364155
 20
248.073254
 30
0.0
 10
111.700219
 20
252.988366
 30
0.0
 10
116.601748
 20
260.318828
 30
0.0
 10
118.137096
 20
268.022123
 30
0.0
 10
117.244575
 20
274.751407
 30
0.0
 10
115.017729
 20
280.129258
 30
0.0
 10
111.474783
 20
284.755454
 30
0.0
 10
106.854406
 20
288.275197
 30
0.0
 10
101.476512
 20
290.588580
 30
0.0
 10
97.633677
 20
290.881325
 30
0.0
 10
95.704277
 20
291.028306
 30
0.0
 11
95.704277
 21
291.028306
 31
0.0
 11
87.218152
 21
289.330455
 31
0.0
 11
80.150498
 21
284.607999
 31
0.0
 11
75.334389
 21
277.417581
 31
0.0
 11
73.655499
 21
268.927684
 31
0.0
 11
75.313805
 21
260.590816
 31
0.0
 11
80.113840
 21
253.389657
 31
0.0
 11
87.314998
 21
248.589622
 31
0.0
 11
95.651865
 21
246.931316
 31
0.0
 11
104.141761
 21
248.610206
 31
0.0
 11
111.332179
 21
253.426315
 31
0.0
 11
116.054634
 21
260.493971
 31
0.0
 11
117.752485
 21
268.980096
 31
0.0
 11
116.997102
 21
274.702119
 31
0.0
 11
114.806658
 21
279.990317
 31
0.0
 11
111.294714
 21
284.570535
 31
0.0
 11
106.714497
 21
288.082479
 31
0.0
 11
101.426299
 21
290.272923
 31
0.0
 11
95.704277
 21
291.028306
 31
0.0
  0
LWPOLYLINE
  5
10c
100
AcDbEntity
  8
Layer_1
 62
1
100
AcDbPolyline
 90
1
 70
1
 10
95.704277
 20
291.028306
 30
0.0
  0
SPLINE
  5
10d
100
AcDbEntity
  8
Layer_1
 62
1
100
AcDbSpline
 70
0
 71
3
 72
25
 73
21
 74
19
 40
0.000000
 40
0.000000
 40
0.000000
 40
0.000000
 40
8.654306
 40
17.154502
 40
25.808808
 40
34.463115
 40
42.963312
 40
51.617618
 40
60.271924
 40
68.772120
 40
77.426426
 40
86.080732
 40
94.580929
 40
103.235235
 40
109.006903
 40
114.730808
 40
120.502475
 40
126.274142
 40
131.998047
 40
137.769714
 40
137.769714
 40
137.769714
 40
137.769714
 10
95.704277
 20
226.639770
 30
0.0
 10
92.800882
 20
226.304744
 30
0.0
 10
87.045793
 20
225.640659
 30
0.0
 10
79.711794
 20
220.546367
 30
0.0
 10
74.797636
 20
213.262551
 30
0.0
 10
73.084878
 20
204.586014
 30
0.0
 10
74.805677
 20
195.938699
 30
0.0
 10
79.703026
 20
188.590098
 30
0.0
 10
87.050626
 20
183.693000
 30
0.0
 10
95.701647
 20
181.972197
 30
0.0
 10
104.364155
 20
183.684718
 30
0.0
 10
111.700219
 20
188.599830
 30
0.0
 10
116.601748
 20
195.930292
 30
0.0
 10
118.137096
 20
203.633587
 30
0.0
 10
117.244575
 20
210.362871
 30
0.0
 10
115.017729
 20
215.740722
 30
0.0
 10
111.474783
 20
220.366918
 30
0.0
 10
106.854406
 20
223.886661
 30
0.0
 10
101.476512
 20
226.200044
 30
0.0
 10
97.633677
 20
226.492789
 30
0.0
 10
95.704277
 20
226.639770
 30
0.0
 11
95.704277
 21
226.639770
 31
0.0
 11
87.218152
 21
224.941919
 31
0.0
 11
80.150498
 21
220.219463
 31
0.0
 11
75.334389
 21
213.029045
 31
0.0
 11
73.655499
 21
204.539148
 31
0.0
 11
75.313805
 21
196.202280
 31
0.0
 11
80.113840
 21
189.001121
 31
0.0
 11
87.314998
 21
184.201086
 31
0.0
 11
95.651865
 21
182.542780
 31
0.0
 11
104.141761
 21
184.221670
 31
0.0
 11
111.332179
 21
189.037779
 31
0.0
 11
116.054634
 21
196.105435
 31
0.0
 11
117.752485
 21
204.591560
 31
0.0
 11
116.997102
 21
210.313583
 31
0.0
 11
114.806658
 21
215.601781
 31
0.0
 11
111.294714
 21
220.181999
 31
0.0
 11
106.714497
 21
223.693943
 31
0.0
 11
101.426299
 21
225.884387
 31
0.0
 11
95.704277
 21
226.639770
 31
0.0
  0
LWPOLYLINE
  5
10e
100
AcDbEntity
  8
Layer_1
 62
1
100
AcDbPolyline
 90
1
 70
1
 10
95.704277
 20
226.639770
 30
0.0
  0
LWPOLYLINE
  5
10f
100
AcDbEntity
  8
Layer_1
 62
1
100
AcDbPolyline
 90
1
 70
1
 10
95.704277
 20
97.862710
 30
0.0
  0
SPLINE
  5
110
100
AcDbEntity
  8
Layer_1
 62
1
100
AcDbSpline
 70
0
 71
3
 72
25
 73
21
 74
19
 40
0.000000
 40
0.000000
 40
0.000000
 40
0.000000
 40
8.654306
 40
17.154502
 40
25.808808
 40
34.463115
 40
42.963312
 40
51.617618
 40
60.271924
 40
68.772120
 40
77.426426
 40
86.080732
 40
94.580929
 40
103.235235
 40
109.006903
 40
114.730808
 40
120.502475
 40
126.274142
 40
131.998047
 40
137.769714
 40
137.769714
 40
137.769714
 40
137.769714
 10
95.704277
 20
97.862710
 30
0.0
 10
92.800882
 20
97.527684
 30
0.0
 10
87.045793
 20
96.863599
 30
0.0
 10
79.711794
 20
91.769307
 30
0.0
 10
74.797636
 20
84.485491
 30
0.0
 10
73.084878
 20
75.808954
 30
0.0
 10
74.805677
 20
67.161639
 30
0.0
 10
79.703026
 20
59.813038
 30
0.0
 10
87.050626
 20
54.915940
 30
0.0
 10
95.701647
 20
53.195137
 30
0.0
 10
104.364155
 20
54.907658
 30
0.0
 10
111.700219
 20
59.822770
 30
0.0
 10
116.601748
 20
67.153232
 30
0.0
 10
118.137096
 20
74.856527
 30
0.0
 10
117.244575
 20
81.585811
 30
0.0
 10
115.017729
 20
86.963662
 30
0.0
 10
111.474783
 20
91.589858
 30
0.0
 10
106.854406
 20
95.109601
 30
0.0
 10
101.476512
 20
97.422984
 30
0.0
 10
97.633677
 20
97.715729
 30
0.0
 10
95.704277
 20
97.862710
 30
0.0
 11
95.704277
 21
97.862710
 31
0.0
 11
87.218152
 21
96.164859
 31
0.0
 11
80.150498
 21
91.442403
 31
0.0
 11
75.334389
 21
84.251985
 31
0.0
 11
73.655499
 21
75.762088
 31
0.0
 11
75.313805
 21
67.425220
 31
0.0
 11
80.113840
 21
60.224061
 31
0.0
 11
87.314998
 21
55.424026
 31
0.0
 11
95.651865
 21
53.765720
 31
0.0
 11
104.141761
 21
55.444610
 31
0.0
 11
111.332179
 21
60.260719
 31
0.0
 11
116.054634
 21
67.328375
 31
0.0
 11
117.752485
 21
75.814500
 31
0.0
 11
116.997102
 21
81.536523
 31
0.0
 11
114.806658
 21
86.824721
 31
0.0
 11
111.294714
 21
91.404939
 31
0.0
 11
106.714497
 21
94.916883
 31
0.0
 11
101.426299
 21
97.107327
 31
0.0
 11
95.704277
 21
97.862710
 31
0.0
  0
LWPOLYLINE
  5
111
100
AcDbEntity
  8
Layer_1
 62
1
100
AcDbPolyline
 90
12
 70
1
 10
77.672141
 20
301.357664
 30
0.0
 10
77.672141
 20
298.415294
 30
0.0
 10
66.252951
 20
298.415294
 30
0.0
 10
66.252951
 20
49.512650
 30
0.0
 10
77.672141
 20
49.512650
 30
0.0
 10
77.672141
 20
46.570800
 30
0.0
 10
113.737500
 20
46.570800
 30
0.0
 10
113.737500
 20
49.512650
 30
0.0
 10
125.156690
 20
49.512650
 30
0.0
 10
125.156690
 20
298.415294
 30
0.0
 10
113.737500
 20
298.415294
 30
0.0
 10
113.737500
 20
301.357664
 30
0.0
  0
SPLINE
  5
112
100
AcDbEntity
  8
Layer_1
 62
1
100
AcDbSpline
 70
0
 71
3
 72
22
 73
18
 74
16
 40
0.000000
 40
0.000000
 40
0.000000
 40
0.000000
 40
8.654306
 40
17.154502
 40
25.808808
 40
34.463115
 40
42.963312
 40
51.617618
 40
60.271924
 40
68.772120
 40
77.426426
 40
86.080732
 40
94.580929
 40
103.235235
 40
114.763343
 40
125.949530
 40
137.477637
 40
137.477637
 40
137.477637
 40
137.477637
 10
159.608340
 20
162.251230
 30
0.0
 10
156.704945
 20
161.916204
 30
0.0
 10
150.949856
 20
161.252119
 30
0.0
 10
143.615857
 20
156.157827
 30
0.0
 10
138.701699
 20
148.874011
 30
0.0
 10
136.988941
 20
140.197473
 30
0.0
 10
138.709739
 20
131.550160
 30
0.0
 10
143.607092
 20
124.201554
 30
0.0
 10
150.954676
 20
119.304471
 30
0.0
 10
159.605761
 20
117.583615
 30
0.0
 10
168.268025
 20
119.296338
 30
0.0
 10
175.604996
 20
124.210698
 30
0.0
 10
180.503180
 20
131.543935
 30
0.0
 10
182.438096
 20
141.169748
 30
0.0
 10
179.586610
 20
151.677634
 30
0.0
 10
171.152678
 20
160.450165
 30
0.0
 10
163.494877
 20
161.644880
 30
0.0
 10
159.608340
 20
162.251230
 30
0.0
 11
159.608340
 21
162.251230
 31
0.0
 11
151.122215
 21
160.553379
 31
0.0
 11
144.054561
 21
155.830923
 31
0.0
 11
139.238452
 21
148.640505
 31
0.0
 11
137.559562
 21
140.150608
 31
0.0
 11
139.217868
 21
131.813740
 31
0.0
 11
144.017903
 21
124.612581
 31
0.0
 11
151.219061
 21
119.812546
 31
0.0
 11
159.555928
 21
118.154240
 31
0.0
 11
168.045824
 21
119.833130
 31
0.0
 11
175.236242
 21
124.649239
 31
0.0
 11
179.958697
 21
131.716895
 31
0.0
 11
181.656548
 21
140.203020
 31
0.0
 11
178.646321
 21
151.331174
 31
0.0
 11
170.736493
 21
159.241003
 31
0.0
 11
159.608340
 21
162.251230
 31
0.0
  0
LWPOLYLINE
  5
113
100
AcDbEntity
  8
Layer_1
 62
1
100
AcDbPolyline
 90
1
 70
1
 10
159.608340
 20
162.251230
 30
0.0
  0
SPLINE
  5
114
100
AcDbEntity
  8
Layer_1
 62
1
100
AcDbSpline
 70
0
 71
3
 72
22
 73
18
 74
16
 40
0.000000
 40
0.000000
 40
0.000000
 40
0.000000
 40
8.654306
 40
17.154502
 40
25.808808
 40
34.463115
 40
42.963312
 40
51.617618
 40
60.271924
 40
68.772120
 40
77.426426
 40
86.080732
 40
94.580929
 40
103.235235
 40
114.763343
 40
125.949530
 40
137.477637
 40
137.477637
 40
137.477637
 40
137.477637
 10
159.608340
 20
291.028306
 30
0.0
 10
156.704945
 20
290.693280
 30
0.0
 10
150.949856
 20
290.029195
 30
0.0
 10
143.615857
 20
284.934903
 30
0.0
 10
138.701699
 20
277.651087
 30
0.0
 10
136.988941
 20
268.974549
 30
0.0
 10
138.709739
 20
260.327236
 30
0.0
 10
143.607092
 20
252.978630
 30
0.0
 10
150.954676
 20
248.081547
 30
0.0
 10
159.605761
 20
246.360691
 30
0.0
 10
168.268025
 20
248.073414
 30
0.0
 10
175.604996
 20
252.987774
 30
0.0
 10
180.503180
 20
260.321011
 30
0.0
 10
182.438096
 20
269.946824
 30
0.0
 10
179.586610
 20
280.454710
 30
0.0
 10
171.152678
 20
289.227241
 30
0.0
 10
163.494877
 20
290.421956
 30
0.0
 10
159.608340
 20
291.028306
 30
0.0
 11
159.608340
 21
291.028306
 31
0.0
 11
151.122215
 21
289.330455
 31
0.0
 11
144.054561
 21
284.607999
 31
0.0
 11
139.238452
 21
277.417581
 31
0.0
 11
137.559562
 21
268.927684
 31
0.0
 11
139.217868
 21
260.590816
 31
0.0
 11
144.017903
 21
253.389657
 31
0.0
 11
151.219061
 21
248.589622
 31
0.0
 11
159.555928
 21
246.931316
 31
0.0
 11
168.045824
 21
248.610206
 31
0.0
 11
175.236242
 21
253.426315
 31
0.0
 11
179.958697
 21
260.493971
 31
0.0
 11
181.656548
 21
268.980096
 31
0.0
 11
178.646321
 21
280.108250
 31
0.0
 11
170.736493
 21
288.018079
 31
0.0
 11
159.608340
 21
291.028306
 31
0.0
  0
LWPOLYLINE
  5
115
100
AcDbEntity
  8
Layer_1
 62
1
100
AcDbPolyline
 90
1
 70
1
 10
159.608340
 20
291.028306
 30
0.0
  0
SPLINE
  5
116
100
AcDbEntity
  8
Layer_1
 62
1
100
AcDbSpline
 70
0
 71
3
 72
22
 73
18
 74
16
 40
0.000000
 40
0.000000
 40
0.000000
 40
0.000000
 40
8.654306
 40
17.154502
 40
25.808808
 40
34.463115
 40
42.963312
 40
51.617618
 40
60.271924
 40
68.772120
 40
77.426426
 40
86.080732
 40
94.580929
 40
103.235235
 40
114.763343
 40
125.949530
 40
137.477637
 40
137.477637
 40
137.477637
 40
137.477637
 10
159.608340
 20
226.639770
 30
0.0
 10
156.704945
 20
226.304744
 30
0.0
 10
150.949856
 20
225.640659
 30
0.0
 10
143.615857
 20
220.546367
 30
0.0
 10
138.701699
 20
213.262551
 30
0.0
 10
136.988941
 20
204.586013
 30
0.0
 10
138.709739
 20
195.938700
 30
0.0
 10
143.607092
 20
188.590094
 30
0.0
 10
150.954676
 20
183.693011
 30
0.0
 10
159.605761
 20
181.972155
 30
0.0
 10
168.268025
 20
183.684878
 30
0.0
 10
175.604996
 20
188.599238
 30
0.0
 10
180.503180
 20
195.932475
 30
0.0
 10
182.438096
 20
205.558288
 30
0.0
 10
179.586610
 20
216.066174
 30
0.0
 10
171.152678
 20
224.838705
 30
0.0
 10
163.494877
 20
226.033420
 30
0.0
 10
159.608340
 20
226.639770
 30
0.0
 11
159.608340
 21
226.639770
 31
0.0
 11
151.122215
 21
224.941919
 31
0.0
 11
144.054561
 21
220.219463
 31
0.0
 11
139.238452
 21
213.029045
 31
0.0
 11
137.559562
 21
204.539148
 31
0.0
 11
139.217868
 21
196.202280
 31
0.0
 11
144.017903
 21
189.001121
 31
0.0
 11
151.219061
 21
184.201086
 31
0.0
 11
159.555928
 21
182.542780
 31
0.0
 11
168.045824
 21
184.221670
 31
0.0
 11
175.236242
 21
189.037779
 31
0.0
 11
179.958697
 21
196.105435
 31
0.0
 11
181.656548
 21
204.591560
 31
0.0
 11
178.646321
 21
215.719714
 31
0.0
 11
170.736493
 21
223.629543
 31
0.0
 11
159.608340
 21
226.639770
 31
0.0
  0
LWPOLYLINE
  5
117
100
AcDbEntity
  8
Layer_1
 62
1
100
AcDbPolyline
 90
1
 70
1
 10
159.608340
 20
226.639770
 30
0.0
  0
LWPOLYLINE
  5
118
100
AcDbEntity
  8
Layer_1
 62
1
100
AcDbPolyline
 90
1
 70
1
 10
159.608340
 20
97.862710
 30
0.0
  0
SPLINE
  5
119
100
AcDbEntity
  8
Layer_1
 62
1
100
AcDbSpline
 70
0
 71
3
 72
22
 73
18
 74
16
 40
0.000000
 40
0.000000
 40
0.000000
 40
0.000000
 40
8.654306
 40
17.154502
 40
25.808808
 40
34.463115
 40
42.963312
 40
51.617618
 40
60.271924
 40
68.772120
 40
77.426426
 40
86.080732
 40
94.580929
 40
103.235235
 40
114.763343
 40
125.949530
 40
137.477637
 40
137.477637
 40
137.477637
 40
137.477637
 10
159.608340
 20
97.862710
 30
0.0
 10
156.704945
 20
97.527684
 30
0.0
 10
150.949856
 20
96.863599
 30
0.0
 10
143.615857
 20
91.769307
 30
0.0
 10
138.701699
 20
84.485491
 30
0.0
 10
136.988941
 20
75.808953
 30
0.0
 10
138.709739
 20
67.161640
 30
0.0
 10
143.607092
 20
59.813034
 30
0.0
 10
150.954676
 20
54.915951
 30
0.0
 10
159.605761
 20
53.195095
 30
0.0
 10
168.268025
 20
54.907818
 30
0.0
 10
175.604996
 20
59.822178
 30
0.0
 10
180.503180
 20
67.155415
 30
0.0
 10
182.438096
 20
76.781228
 30
0.0
 10
179.586610
 20
87.289114
 30
0.0
 10
171.152678
 20
96.061645
 30
0.0
 10
163.494877
 20
97.256360
 30
0.0
 10
159.608340
 20
97.862710
 30
0.0
 11
159.608340
 21
97.862710
 31
0.0
 11
151.122215
 21
96.164859
 31
0.0
 11
144.054561
 21
91.442403
 31
0.0
 11
139.238452
 21
84.251985
 31
0.0
 11
137.559562
 21
75.762088
 31
0.0
 11
139.217868
 21
67.425220
 31
0.0
 11
144.017903
 21
60.224061
 31
0.0
 11
151.219061
 21
55.424026
 31
0.0
 11
159.555928
 21
53.765720
 31
0.0
 11
168.045824
 21
55.444610
 31
0.0
 11
175.236242
 21
60.260719
 31
0.0
 11
179.958697
 21
67.328375
 31
0.0
 11
181.656548
 21
75.814500
 31
0.0
 11
178.646321
 21
86.942654
 31
0.0
 11
170.736493
 21
94.852483
 31
0.0
 11
159.608340
 21
97.862710
 31
0.0
  0
LWPOLYLINE
  5
11a
100
AcDbEntity
  8
Layer_1
 62
1
100
AcDbPolyline
 90
12
 70
1
 10
141.576120
 20
301.357664
 30
0.0
 10
141.576120
 20
298.415294
 30
0.0
 10
130.156930
 20
298.415294
 30
0.0
 10
130.156930
 20
49.512650
 30
0.0
 10
141.576120
 20
49.512650
 30
0.0
 10
141.576120
 20
46.570800
 30
0.0
 10
177.641500
 20
46.570800
 30
0.0
 10
177.641500
 20
49.512650
 30
0.0
 10
189.060690
 20
49.512650
 30
0.0
 10
189.060690
 20
298.415294
 30
0.0
 10
177.641500
 20
298.415294
 30
0.0
 10
177.641500
 20
301.357664
 30
0.0
  0
SPLINE
  5
11b
100
AcDbEntity
  8
Layer_1
 62
1
100
AcDbSpline
 70
0
 71
3
 72
25
 73
21
 74
19
 40
0.000000
 40
0.000000
 40
0.000000
 40
0.000000
 40
8.654306
 40
17.154502
 40
25.808808
 40
34.463115
 40
42.963312
 40
51.617618
 40
60.271924
 40
68.772120
 40
77.426426
 40
86.080732
 40
94.580929
 40
103.235235
 40
109.006903
 40
114.730808
 40
120.502475
 40
126.274142
 40
131.998047
 40
137.769714
 40
137.769714
 40
137.769714
 40
137.769714
 10
223.512530
 20
162.251230
 30
0.0
 10
220.609135
 20
161.916204
 30
0.0
 10
214.854046
 20
161.252119
 30
0.0
 10
207.520047
 20
156.157827
 30
0.0
 10
202.605889
 20
148.874011
 30
0.0
 10
200.893131
 20
140.197474
 30
0.0
 10
202.613930
 20
131.550159
 30
0.0
 10
207.511279
 20
124.201558
 30
0.0
 10
214.858879
 20
119.304460
 30
0.0
 10
223.509900
 20
117.583657
 30
0.0
 10
232.172408
 20
119.296178
 30
0.0
 10
239.508472
 20
124.211290
 30
0.0
 10
244.410001
 20
131.541752
 30
0.0
 10
245.945349
 20
139.245047
 30
0.0
 10
245.052828
 20
145.974331
 30
0.0
 10
242.825982
 20
151.352182
 30
0.0
 10
239.283036
 20
155.978378
 30
0.0
 10
234.662659
 20
159.498121
 30
0.0
 10
229.284765
 20
161.811504
 30
0.0
 10
225.441930
 20
162.104249
 30
0.0
 10
223.512530
 20
162.251230
 30
0.0
 11
223.512530
 21
162.251230
 31
0.0
 11
215.026405
 21
160.553379
 31
0.0
 11
207.958751
 21
155.830923
 31
0.0
 11
203.142642
 21
148.640505
 31
0.0
 11
201.463752
 21
140.150608
 31
0.0
 11
203.122058
 21
131.813740
 31
0.0
 11
207.922093
 21
124.612581
 31
0.0
 11
215.123251
 21
119.812546
 31
0.0
 11
223.460118
 21
118.154240
 31
0.0
 11
231.950014
 21
119.833130
 31
0.0
 11
239.140432
 21
124.649239
 31
0.0
 11
243.862887
 21
131.716895
 31
0.0
 11
245.560738
 21
140.203020
 31
0.0
 11
244.805355
 21
145.925043
 31
0.0
 11
242.614911
 21
151.213241
 31
0.0
 11
239.102967
 21
155.793459
 31
0.0
 11
234.522750
 21
159.305403
 31
0.0
 11
229.234552
 21
161.495847
 31
0.0
 11
223.512530
 21
162.251230
 31
0.0
  0
LWPOLYLINE
  5
11c
100
AcDbEntity
  8
Layer_1
 62
1
100
AcDbPolyline
 90
1
 70
1
 10
223.512530
 20
162.251230
 30
0.0
  0
SPLINE
  5
11d
100
AcDbEntity
  8
Layer_1
 62
1
100
AcDbSpline
 70
0
 71
3
 72
25
 73
21
 74
19
 40
0.000000
 40
0.000000
 40
0.000000
 40
0.000000
 40
8.654306
 40
17.154502
 40
25.808808
 40
34.463115
 40
42.963312
 40
51.617618
 40
60.271924
 40
68.772120
 40
77.426426
 40
86.080732
 40
94.580929
 40
103.235235
 40
109.006903
 40
114.730808
 40
120.502475
 40
126.274142
 40
131.998047
 40
137.769714
 40
137.769714
 40
137.769714
 40
137.769714
 10
223.512530
 20
291.028306
 30
0.0
 10
220.609135
 20
290.693280
 30
0.0
 10
214.854046
 20
290.029195
 30
0.0
 10
207.520047
 20
284.934903
 30
0.0
 10
202.605889
 20
277.651087
 30
0.0
 10
200.893131
 20
268.974550
 30
0.0
 10
202.613930
 20
260.327235
 30
0.0
 10
207.511279
 20
252.978634
 30
0.0
 10
214.858879
 20
248.081536
 30
0.0
 10
223.509900
 20
246.360733
 30
0.0
 10
232.172408
 20
248.073254
 30
0.0
 10
239.508472
 20
252.988366
 30
0.0
 10
244.410001
 20
260.318828
 30
0.0
 10
245.945349
 20
268.022123
 30
0.0
 10
245.052828
 20
274.751407
 30
0.0
 10
242.825982
 20
280.129258
 30
0.0
 10
239.283036
 20
284.755454
 30
0.0
 10
234.662659
 20
288.275197
 30
0.0
 10
229.284765
 20
290.588580
 30
0.0
 10
225.441930
 20
290.881325
 30
0.0
 10
223.512530
 20
291.028306
 30
0.0
 11
223.512530
 21
291.028306
 31
0.0
 11
215.026405
 21
289.330455
 31
0.0
 11
207.958751
 21
284.607999
 31
0.0
 11
203.142642
 21
277.417581
 31
0.0
 11
201.463752
 21
268.927684
 31
0.0
 11
203.122058
 21
260.590816
 31
0.0
 11
207.922093
 21
253.389657
 31
0.0
 11
215.123251
 21
248.589622
 31
0.0
 11
223.460118
 21
246.931316
 31
0.0
 11
231.950014
 21
248.610206
 31
0.0
 11
239.140432
 21
253.426315
 31
0.0
 11
243.862887
 21
260.493971
 31
0.0
 11
245.560738
 21
268.980096
 31
0.0
 11
244.805355
 21
274.702119
 31
0.0
 11
242.614911
 21
279.990317
 31
0.0
 11
239.102967
 21
284.570535
 31
0.0
 11
234.522750
 21
288.082479
 31
0.0
 11
229.234552
 21
290.272923
 31
0.0
 11
223.512530
 21
291.028306
 31
0.0
  0
LWPOLYLINE
  5
11e
100
AcDbEntity
  8
Layer_1
 62
1
100
AcDbPolyline
 90
1
 70
1
 10
223.512530
 20
291.028306
 30
0.0
  0
SPLINE
  5
11f
100
AcDbEntity
  8
Layer_1
 62
1
100
AcDbSpline
 70
0
 71
3
 72
25
 73
21
 74
19
 40
0.000000
 40
0.000000
 40
0.000000
 40
0.000000
 40
8.654306
 40
17.154502
 40
25.808808
 40
34.463115
 40
42.963312
 40
51.617618
 40
60.271924
 40
68.772120
 40
77.426426
 40
86.080732
 40
94.580929
 40
103.235235
 40
109.006903
 40
114.730808
 40
120.502475
 40
126.274142
 40
131.998047
 40
137.769714
 40
137.769714
 40
137.769714
 40
137.769714
 10
223.512530
 20
226.639770
 30
0.0
 10
220.609135
 20
226.304744
 30
0.0
 10
214.854046
 20
225.640659
 30
0.0
 10
207.520047
 20
220.546367
 30
0.0
 10
202.605889
 20
213.262551
 30
0.0
 10
200.893131
 20
204.586014
 30
0.0
 10
202.613930
 20
195.938699
 30
0.0
 10
207.511279
 20
188.590098
 30
0.0
 10
214.858879
 20
183.693000
 30
0.0
 10
223.509900
 20
181.972197
 30
0.0
 10
232.172408
 20
183.684718
 30
0.0
 10
239.508472
 20
188.599830
 30
0.0
 10
244.410001
 20
195.930292
 30
0.0
 10
245.945349
 20
203.633587
 30
0.0
 10
245.052828
 20
210.362871
 30
0.0
 10
242.825982
 20
215.740722
 30
0.0
 10
239.283036
 20
220.366918
 30
0.0
 10
234.662659
 20
223.886661
 30
0.0
 10
229.284765
 20
226.200044
 30
0.0
 10
225.441930
 20
226.492789
 30
0.0
 10
223.512530
 20
226.639770
 30
0.0
 11
223.512530
 21
226.639770
 31
0.0
 11
215.026405
 21
224.941919
 31
0.0
 11
207.958751
 21
220.219463
 31
0.0
 11
203.142642
 21
213.029045
 31
0.0
 11
201.463752
 21
204.539148
 31
0.0
 11
203.122058
 21
196.202280
 31
0.0
 11
207.922093
 21
189.001121
 31
0.0
 11
215.123251
 21
184.201086
 31
0.0
 11
223.460118
 21
182.542780
 31
0.0
 11
231.950014
 21
184.221670
 31
0.0
 11
239.140432
 21
189.037779
 31
0.0
 11
243.862887
 21
196.105435
 31
0.0
 11
245.560738
 21
204.591560
 31
0.0
 11
244.805355
 21
210.313583
 31
0.0
 11
242.614911
 21
215.601781
 31
0.0
 11
239.102967
 21
220.181999
 31
0.0
 11
234.522750
 21
223.693943
 31
0.0
 11
229.234552
 21
225.884387
 31
0.0
 11
223.512530
 21
226.639770
 31
0.0
  0
LWPOLYLINE
  5
120
100
AcDbEntity
  8
Layer_1
 62
1
100
AcDbPolyline
 90
1
 70
1
 10
223.512530
 20
226.639770
 30
0.0
  0
LWPOLYLINE
  5
121
100
AcDbEntity
  8
Layer_1
 62
1
100
AcDbPolyline
 90
1
 70
1
 10
223.512530
 20
97.862710
 30
0.0
  0
LWPOLYLINE
  5
122
100
AcDbEntity
  8
Layer_1
 62
1
100
AcDbPolyline
 90
12
 70
1
 10
205.480310
 20
301.357664
 30
0.0
 10
205.480310
 20
298.415294
 30
0.0
 10
194.061120
 20
298.415294
 30
0.0
 10
194.061120
 20
49.512650
 30
0.0
 10
205.480310
 20
49.512650
 30
0.0
 10
205.480310
 20
46.570800
 30
0.0
 10
241.545690
 20
46.570800
 30
0.0
 10
241.545690
 20
49.512650
 30
0.0
 10
252.964880
 20
49.512650
 30
0.0
 10
252.964880
 20
298.415294
 30
0.0
 10
241.545690
 20
298.415294
 30
0.0
 10
241.545690
 20
301.357664
 30
0.0
  0
LWPOLYLINE
  5
123
100
AcDbEntity
  8
Layer_1
 62
1
100
AcDbPolyline
 90
12
 70
1
 10
257.612640
 20
298.415294
 30
0.0
 10
257.612640
 20
285.609214
 30
0.0
 10
267.230660
 20
285.609214
 30
0.0
 10
267.230660
 20
282.463485
 30
0.0
 10
257.612640
 20
282.463485
 30
0.0
 10
257.612640
 20
33.703280
 30
0.0
 10
267.230660
 20
33.703280
 30
0.0
 10
267.230660
 20
30.557550
 30
0.0
 10
257.612640
 20
30.557550
 30
0.0
 10
257.612640
 20
17.734270
 30
0.0
 10
276.387210
 20
17.734270
 30
0.0
 10
276.387210
 20
298.415294
 30
0.0
  0
SPLINE
  5
124
100
AcDbEntity
  8
Layer_1
 62
1
100
AcDbSpline
 70
0
 71
3
 72
25
 73
21
 74
19
 40
0.000000
 40
0.000000
 40
0.000000
 40
0.000000
 40
8.654306
 40
17.154502
 40
25.808808
 40
34.463115
 40
42.963312
 40
51.617618
 40
60.271924
 40
68.772120
 40
77.426426
 40
86.080732
 40
94.580929
 40
103.235235
 40
109.006903
 40
114.730808
 40
120.502475
 40
126.274142
 40
131.998047
 40
137.769714
 40
137.769714
 40
137.769714
 40
137.769714
 10
223.512530
 20
97.862710
 30
0.0
 10
220.609135
 20
97.527684
 30
0.0
 10
214.854046
 20
96.863599
 30
0.0
 10
207.520047
 20
91.769307
 30
0.0
 10
202.605889
 20
84.485491
 30
0.0
 10
200.893131
 20
75.808954
 30
0.0
 10
202.613930
 20
67.161639
 30
0.0
 10
207.511279
 20
59.813038
 30
0.0
 10
214.858879
 20
54.915940
 30
0.0
 10
223.509900
 20
53.195137
 30
0.0
 10
232.172408
 20
54.907658
 30
0.0
 10
239.508472
 20
59.822770
 30
0.0
 10
244.410001
 20
67.153232
 30
0.0
 10
245.945349
 20
74.856527
 30
0.0
 10
245.052828
 20
81.585811
 30
0.0
 10
242.825982
 20
86.963662
 30
0.0
 10
239.283036
 20
91.589858
 30
0.0
 10
234.662659
 20
95.109601
 30
0.0
 10
229.284765
 20
97.422984
 30
0.0
 10
225.441930
 20
97.715729
 30
0.0
 10
223.512530
 20
97.862710
 30
0.0
 11
223.512530
 21
97.862710
 31
0.0
 11
215.026405
 21
96.164859
 31
0.0
 11
207.958751
 21
91.442403
 31
0.0
 11
203.142642
 21
84.251985
 31
0.0
 11
201.463752
 21
75.762088
 31
0.0
 11
203.122058
 21
67.425220
 31
0.0
 11
207.922093
 21
60.224061
 31
0.0
 11
215.123251
 21
55.424026
 31
0.0
 11
223.460118
 21
53.765720
 31
0.0
 11
231.950014
 21
55.444610
 31
0.0
 11
239.140432
 21
60.260719
 31
0.0
 11
243.862887
 21
67.328375
 31
0.0
 11
245.560738
 21
75.814500
 31
0.0
 11
244.805355
 21
81.536523
 31
0.0
 11
242.614911
 21
86.824721
 31
0.0
 11
239.102967
 21
91.404939
 31
0.0
 11
234.522750
 21
94.916883
 31
0.0
 11
229.234552
 21
97.107327
 31
0.0
 11
223.512530
 21
97.862710
 31
0.0
  0
LWPOLYLINE
  5
125
100
AcDbEntity
  8
Layer_1
 62
1
100
AcDbPolyline
 90
12
 70
1
 10
281.387390
 20
298.415290
 30
0.0
 10
281.387390
 20
285.609210
 30
0.0
 10
291.005410
 20
285.609210
 30
0.0
 10
291.005410
 20
282.463480
 30
0.0
 10
281.387390
 20
282.463480
 30
0.0
 10
281.387390
 20
33.703280
 30
0.0
 10
291.005410
 20
33.703280
 30
0.0
 10
291.005410
 20
30.557550
 30
0.0
 10
281.387390
 20
30.557550
 30
0.0
 10
281.387390
 20
17.734270
 30
0.0
 10
300.161960
 20
17.734270
 30
0.0
 10
300.161960
 20
298.415290
 30
0.0
  0
ENDSEC
  0
SECTION
  2
OBJECTS
  0
DICTIONARY
  5
C
330
0
100
AcDbDictionary
  3
ACAD_GROUP
350
D
  3
ACAD_MLINESTYLE
350
17
  0
DICTIONARY
  5
D
330
C
100
AcDbDictionary
  0
DICTIONARY
  5
1A
330
C
100
AcDbDictionary
  0
DICTIONARY
  5
17
330
C
100
AcDbDictionary
  3
STANDARD
350
18
  0
DICTIONARY
  5
19
330
C
100
AcDbDictionary
  0
ENDSEC
  0
EOF
